<svg aria-hidden="true" style="position: absolute; width: 0; height: 0; overflow: hidden;" version="1.1" xmlns="http://www.w3.org/2000/svg" xmlns:xlink="http://www.w3.org/1999/xlink">
<defs>
<symbol id="icon-arrow-left" viewBox="0 0 32 32">
<path fill="none" stroke="inherit" stroke-width="3" stroke-miterlimit="4" stroke-linecap="round" stroke-linejoin="round" d="M22.5 3.167l-13 12.917 13 12.917"></path>
</symbol>
<symbol id="icon-arrow-right" viewBox="0 0 32 32">
<path fill="none" stroke="inherit" stroke-width="3" stroke-miterlimit="4" stroke-linecap="round" stroke-linejoin="round" d="M9.5 28.833l13-12.917-13-12.917"></path>
</symbol>
<symbol id="icon-gmail" viewBox="0 0 32 32">
<path fill="#f7f3f3" style="fill: var(--color1, #f7f3f3)" d="M16.657 14.56v4.373h10.728c-0.328 2.453-1.167 4.249-2.445 5.511-1.57 1.529-4.013 3.2-8.283 3.2-6.605 0-11.768-5.191-11.768-11.627s5.163-11.627 11.768-11.627c3.558 0 6.167 1.369 8.083 3.129l3.157-3.076c-2.664-2.524-6.241-4.444-11.24-4.444-9.049 0-16.657 7.183-16.657 16s7.608 16 16.657 16c4.889 0 8.575-1.564 11.457-4.48 2.956-2.88 3.886-6.951 3.886-10.223 0-1.013-0.073-1.956-0.237-2.737h-15.107z"></path>
</symbol>
<symbol id="icon-close" viewBox="0 0 32 32">
<path stroke-linejoin="miter" stroke-linecap="butt" stroke-miterlimit="4" stroke-width="1.7778" d="M1.778 1.778l28.444 28.444"></path>
<path stroke-linejoin="miter" stroke-linecap="butt" stroke-miterlimit="4" stroke-width="1.7778" d="M1.778 30.222l28.444-28.444"></path>
</symbol>
<symbol id="icon-telegram" viewBox="0 0 32 32">
<path d="M16 0.5c-8.563 0-15.5 6.938-15.5 15.5s6.938 15.5 15.5 15.5 15.5-6.938 15.5-15.5-6.938-15.5-15.5-15.5zM23.613 11.119l-2.544 11.988c-0.188 0.85-0.694 1.056-1.4 0.656l-3.875-2.856-1.869 1.8c-0.206 0.206-0.381 0.381-0.781 0.381l0.275-3.944 7.181-6.488c0.313-0.275-0.069-0.431-0.481-0.156l-8.875 5.588-3.825-1.194c-0.831-0.262-0.85-0.831 0.175-1.231l14.944-5.762c0.694-0.25 1.3 0.169 1.075 1.219z"></path>
</symbol>
<symbol id="icon-color" viewBox="0 0 32 32">
<path fill="none" stroke="#f7f3f3" style="stroke: var(--color1, #f7f3f3)" stroke-linejoin="round" stroke-linecap="round" stroke-miterlimit="4" stroke-width="3.2" d="M16 1.6v1.6M16 28.8v1.6M30.4 16h-1.6M3.2 16h-1.6M26.182 26.182l-1.131-1.131M6.949 6.949l-1.131-1.131M26.182 5.818l-1.131 1.131M6.949 25.051l-1.131 1.131M22.4 16c0 1.697-0.674 3.325-1.875 4.525s-2.828 1.875-4.525 1.875c-1.697 0-3.325-0.674-4.526-1.875s-1.874-2.828-1.874-4.525c0-1.697 0.674-3.325 1.874-4.526s2.828-1.874 4.526-1.874c1.697 0 3.325 0.674 4.525 1.874s1.875 2.828 1.875 4.526z"></path>
</symbol>
<symbol id="icon-css" viewBox="0 0 32 32">
<path fill="#f7f3f3" style="fill: var(--color1, #f7f3f3)" d="M1.333 0h27.999l-2.546 28.751-11.483 3.249-11.42-3.251-2.55-28.749zM24.12 5.883l-17.573-0.004 0.283 3.495 13.5 0.004-0.339 3.622h-8.854l0.321 3.43h8.243l-0.488 4.698-3.88 1.072-3.939-1.081-0.253-2.813h-3.479l0.387 5.141 7.284 2.268 7.164-2.039 1.623-17.793z"></path>
</symbol>
<symbol id="icon-github" viewBox="0 0 32 32">
<path fill="#f7f3f3" style="fill: var(--color1, #f7f3f3)" d="M16 0c-8.84 0-16 7.346-16 16.406 0 7.25 4.584 13.398 10.94 15.566 0.8 0.154 1.093-0.353 1.093-0.789 0-0.39-0.013-1.422-0.020-2.789-4.451 0.99-5.389-2.201-5.389-2.201-0.728-1.893-1.78-2.399-1.78-2.399-1.449-1.017 0.112-0.997 0.112-0.997 1.607 0.115 2.451 1.69 2.451 1.69 1.427 2.509 3.745 1.784 4.66 1.365 0.144-1.061 0.556-1.784 1.013-2.195-3.553-0.41-7.288-1.821-7.288-8.107 0-1.791 0.62-3.254 1.647-4.402-0.18-0.414-0.72-2.082 0.14-4.342 0 0 1.34-0.44 4.4 1.682 1.28-0.365 2.64-0.545 4-0.554 1.36 0.008 2.72 0.189 4 0.554 3.040-2.122 4.38-1.682 4.38-1.682 0.86 2.26 0.32 3.928 0.16 4.342 1.020 1.148 1.64 2.611 1.64 4.402 0 6.303-3.74 7.69-7.3 8.094 0.56 0.492 1.080 1.498 1.080 3.035 0 2.196-0.020 3.959-0.020 4.493 0 0.431 0.28 0.943 1.1 0.779 6.401-2.152 10.981-8.304 10.981-15.544 0-9.060-7.164-16.406-16-16.406z"></path>
</symbol>
<symbol id="icon-html" viewBox="0 0 32 32">
<path fill="#f7f3f3" style="fill: var(--color1, #f7f3f3)" d="M15.943 23.967l6.823-1.855 0.92-10.011h-12.136l-0.301-3.329h12.74l0.335-3.265h-16.763l0.939 9.863h11.55l-0.385 4.233-3.722 0.985-3.722-0.985-0.233-2.723h-3.353l0.486 5.234 6.822 1.854zM2.651 0.074h26.585l-2.397 26.585-10.895 2.954-10.895-2.954-2.397-26.585z"></path>
</symbol>
<symbol id="icon-instagram" viewBox="0 0 32 32">
<path fill="#f7f3f3" style="fill: var(--color1, #f7f3f3)" d="M16 0c-4.347 0-4.889 0.020-6.596 0.096-1.704 0.080-2.864 0.348-3.884 0.744-1.052 0.408-1.945 0.956-2.835 1.845s-1.439 1.781-1.845 2.835c-0.396 1.020-0.665 2.18-0.744 3.884-0.080 1.707-0.096 2.249-0.096 6.596s0.020 4.889 0.096 6.596c0.080 1.703 0.348 2.864 0.744 3.884 0.408 1.051 0.956 1.945 1.845 2.835 0.889 0.888 1.781 1.439 2.835 1.845 1.021 0.395 2.181 0.665 3.884 0.744 1.707 0.080 2.249 0.096 6.596 0.096s4.889-0.020 6.596-0.096c1.703-0.080 2.864-0.349 3.884-0.744 1.051-0.408 1.945-0.957 2.835-1.845 0.888-0.889 1.439-1.78 1.845-2.835 0.395-1.020 0.665-2.181 0.744-3.884 0.080-1.707 0.096-2.249 0.096-6.596s-0.020-4.889-0.096-6.596c-0.080-1.703-0.349-2.865-0.744-3.884-0.408-1.052-0.957-1.945-1.845-2.835-0.889-0.889-1.78-1.439-2.835-1.845-1.020-0.396-2.181-0.665-3.884-0.744-1.707-0.080-2.249-0.096-6.596-0.096zM16 2.88c4.271 0 4.78 0.021 6.467 0.095 1.56 0.073 2.407 0.332 2.969 0.553 0.749 0.289 1.28 0.636 1.843 1.195 0.559 0.56 0.905 1.092 1.195 1.841 0.218 0.563 0.48 1.409 0.551 2.969 0.076 1.688 0.093 2.195 0.093 6.467s-0.020 4.78-0.099 6.467c-0.081 1.56-0.341 2.407-0.561 2.969-0.299 0.749-0.639 1.28-1.199 1.843-0.559 0.559-1.099 0.905-1.84 1.195-0.56 0.218-1.42 0.48-2.98 0.551-1.698 0.076-2.199 0.093-6.479 0.093-4.281 0-4.781-0.020-6.479-0.099-1.561-0.081-2.421-0.341-2.981-0.561-0.759-0.299-1.28-0.639-1.839-1.199-0.561-0.559-0.92-1.099-1.2-1.84-0.22-0.56-0.479-1.42-0.56-2.98-0.060-1.68-0.081-2.199-0.081-6.459 0-4.261 0.021-4.781 0.081-6.481 0.081-1.56 0.34-2.419 0.56-2.979 0.28-0.76 0.639-1.28 1.2-1.841 0.559-0.559 1.080-0.919 1.839-1.197 0.56-0.221 1.401-0.481 2.961-0.561 1.7-0.060 2.2-0.080 6.479-0.080l0.060 0.040zM16 7.784c-4.54 0-8.216 3.68-8.216 8.216 0 4.54 3.68 8.216 8.216 8.216 4.54 0 8.216-3.68 8.216-8.216 0-4.54-3.68-8.216-8.216-8.216zM16 21.333c-2.947 0-5.333-2.387-5.333-5.333s2.387-5.333 5.333-5.333c2.947 0 5.333 2.387 5.333 5.333s-2.387 5.333-5.333 5.333zM26.461 7.46c0 1.060-0.861 1.92-1.92 1.92-1.060 0-1.92-0.861-1.92-1.92s0.861-1.919 1.92-1.919c1.057-0.001 1.92 0.86 1.92 1.919z"></path>
</symbol>
<symbol id="icon-js" viewBox="0 0 32 32">
<path fill="#f7f3f3" style="fill: var(--color1, #f7f3f3)" d="M0 0h32v32h-32v-32zM29.378 24.368c-0.233-1.46-1.184-2.686-4.004-3.831-0.981-0.46-2.071-0.779-2.398-1.518-0.121-0.441-0.139-0.679-0.060-0.94 0.201-0.86 1.221-1.118 2.021-0.88 0.521 0.16 1.001 0.56 1.301 1.202 1.378-0.901 1.378-0.901 2.34-1.5-0.361-0.558-0.541-0.802-0.781-1.042-0.841-0.939-1.961-1.419-3.78-1.378l-0.939 0.119c-0.901 0.22-1.762 0.702-2.281 1.34-1.52 1.721-1.081 4.72 0.759 5.963 1.819 1.36 4.482 1.659 4.821 2.939 0.32 1.561-1.159 2.060-2.622 1.881-1.079-0.242-1.68-0.781-2.34-1.781l-2.439 1.401c0.279 0.638 0.599 0.919 1.079 1.479 2.32 2.339 8.121 2.22 9.161-1.341 0.037-0.119 0.32-0.939 0.099-2.199l0.061 0.087zM17.401 14.708h-2.997c0 2.583-0.012 5.152-0.012 7.74 0 1.643 0.084 3.15-0.185 3.614-0.439 0.919-1.575 0.802-2.089 0.638-0.528-0.26-0.796-0.621-1.108-1.14-0.084-0.139-0.146-0.26-0.169-0.26l-2.432 1.501c0.407 0.841 1.001 1.563 1.767 2.021 1.14 0.681 2.67 0.901 4.274 0.542 1.045-0.302 1.947-0.923 2.414-1.883 0.683-1.239 0.537-2.761 0.532-4.46 0.014-2.74 0-5.481 0-8.24l0.005-0.075z"></path>
</symbol>
<symbol id="icon-linkedin" viewBox="0 0 32 32">
<path fill="#f7f3f3" style="fill: var(--color1, #f7f3f3)" d="M27.263 27.269h-4.739v-7.425c0-1.771-0.036-4.049-2.469-4.049-2.471 0-2.848 1.927-2.848 3.919v7.556h-4.739v-15.269h4.552v2.081h0.061c0.636-1.2 2.183-2.467 4.493-2.467 4.801 0 5.689 3.16 5.689 7.273l-0.001 8.381zM7.116 9.911c-1.525 0-2.751-1.235-2.751-2.753 0-1.517 1.227-2.751 2.751-2.751 1.52 0 2.752 1.233 2.752 2.751 0 1.519-1.233 2.753-2.752 2.753zM9.492 27.269h-4.752v-15.269h4.752v15.269zM29.633 0h-27.272c-1.305 0-2.361 1.032-2.361 2.305v27.389c0 1.274 1.056 2.305 2.361 2.305h27.268c1.304 0 2.371-1.031 2.371-2.305v-27.389c0-1.273-1.067-2.305-2.371-2.305h0.004z"></path>
</symbol>
<symbol id="icon-react" viewBox="0 0 32 32">
<path fill="#f7f3f3" style="fill: var(--color1, #f7f3f3)" d="M16 17.293c1.237 0 2.24-1.003 2.24-2.24s-1.003-2.24-2.24-2.24c-1.237 0-2.24 1.003-2.24 2.24s1.003 2.24 2.24 2.24z"></path>
<path fill="#f7f3f3" style="fill: var(--color1, #f7f3f3)" d="M9.728 19.506l-0.496-0.127c-3.682-0.93-5.794-2.511-5.794-4.332 0-1.822 2.113-3.402 5.794-4.332l0.496-0.126 0.139 0.491c0.372 1.285 0.849 2.537 1.426 3.743l0.107 0.223-0.107 0.223c-0.577 1.208-1.055 2.461-1.426 3.746l-0.139 0.489zM9.004 11.858c-2.797 0.788-4.515 1.99-4.515 3.19 0 1.197 1.717 2.401 4.515 3.187 0.343-1.089 0.757-2.155 1.236-3.187-0.483-1.034-0.896-2.1-1.236-3.19zM22.271 19.506l-0.138-0.492c-0.373-1.285-0.85-2.537-1.427-3.745l-0.107-0.222 0.107-0.225c0.577-1.206 1.053-2.46 1.427-3.745l0.138-0.489 0.496 0.125c3.683 0.93 5.794 2.51 5.794 4.333 0 1.822-2.112 3.402-5.794 4.332l-0.496 0.127zM21.756 15.048c0.502 1.087 0.92 2.156 1.239 3.187 2.799-0.787 4.516-1.99 4.516-3.187 0-1.2-1.717-2.401-4.516-3.19-0.342 1.089-0.756 2.155-1.239 3.19z"></path>
<path fill="#f7f3f3" style="fill: var(--color1, #f7f3f3)" d="M8.996 11.853l-0.138-0.489c-1.037-3.649-0.723-6.263 0.862-7.174 1.55-0.897 4.043 0.163 6.655 2.842l0.356 0.366-0.356 0.365c-0.928 0.965-1.775 2.003-2.535 3.105l-0.142 0.203-0.246 0.020c-1.336 0.105-2.661 0.319-3.962 0.639l-0.494 0.123zM10.982 4.914c-0.281 0-0.53 0.061-0.739 0.182-1.039 0.599-1.222 2.683-0.507 5.496 1.118-0.247 2.246-0.424 3.383-0.523 0.658-0.934 1.376-1.823 2.15-2.664-1.635-1.59-3.179-2.491-4.287-2.491zM21.017 26.227c-1.491 0-3.406-1.124-5.394-3.165l-0.355-0.365 0.355-0.364c0.928-0.966 1.776-2.006 2.536-3.109l0.141-0.201 0.243-0.024c1.336-0.103 2.662-0.316 3.963-0.636l0.496-0.125 0.139 0.491c1.032 3.647 0.719 6.264-0.863 7.176-0.384 0.218-0.82 0.329-1.261 0.322zM16.731 22.689c1.634 1.59 3.179 2.492 4.286 2.492 0.282 0 0.531-0.063 0.739-0.182 1.040-0.6 1.225-2.688 0.507-5.502-1.117 0.248-2.246 0.427-3.386 0.526-0.655 0.935-1.372 1.826-2.146 2.665z"></path>
<path fill="#f7f3f3" style="fill: var(--color1, #f7f3f3)" d="M23.003 11.853l-0.496-0.124c-1.301-0.321-2.627-0.535-3.963-0.639l-0.243-0.021-0.141-0.203c-0.759-1.102-1.608-2.141-2.536-3.105l-0.355-0.365 0.355-0.364c2.61-2.678 5.103-3.738 6.655-2.842 1.584 0.912 1.899 3.526 0.863 7.174l-0.139 0.489zM18.878 10.069c1.197 0.107 2.331 0.286 3.386 0.523 0.717-2.813 0.533-4.898-0.507-5.498-1.034-0.599-2.98 0.317-5.025 2.31 0.773 0.841 1.491 1.729 2.146 2.664zM10.982 26.227c-0.442 0.006-0.877-0.105-1.261-0.322-1.585-0.911-1.899-3.528-0.863-7.176l0.136-0.491 0.496 0.125c1.21 0.305 2.542 0.52 3.963 0.636l0.243 0.024 0.142 0.201c0.758 1.102 1.606 2.142 2.535 3.109l0.356 0.364-0.356 0.365c-1.986 2.042-3.902 3.165-5.39 3.165zM9.736 19.499c-0.715 2.813-0.532 4.902 0.507 5.501 1.035 0.59 2.975-0.32 5.026-2.312-0.773-0.841-1.491-1.731-2.15-2.664-1.138-0.101-2.268-0.276-3.383-0.526z"></path>
<path fill="#f7f3f3" style="fill: var(--color1, #f7f3f3)" d="M16 20.158c-0.862 0-1.747-0.037-2.635-0.11l-0.246-0.021-0.142-0.203c-0.501-0.721-0.972-1.461-1.413-2.22-0.437-0.761-0.844-1.539-1.219-2.333l-0.105-0.222 0.105-0.225c0.375-0.793 0.781-1.571 1.219-2.332 0.435-0.748 0.911-1.496 1.413-2.221l0.142-0.201 0.246-0.023c1.753-0.147 3.515-0.147 5.268 0l0.243 0.024 0.142 0.201c1.004 1.442 1.885 2.964 2.635 4.553l0.104 0.225-0.104 0.222c-0.748 1.589-1.63 3.112-2.635 4.553l-0.142 0.203-0.243 0.021c-0.886 0.072-1.772 0.109-2.633 0.109zM13.698 19.023c1.55 0.117 3.053 0.117 4.602 0 0.864-1.266 1.633-2.595 2.299-3.976-0.664-1.382-1.432-2.711-2.299-3.976-1.532-0.118-3.070-0.118-4.602 0-0.867 1.264-1.636 2.593-2.299 3.976 0.667 1.38 1.436 2.709 2.299 3.976z"></path>
</symbol>
<symbol id="icon-ts" viewBox="0 0 32 32">
<path fill="#f7f3f3" style="fill: var(--color1, #f7f3f3)" d="M27.881 1.231h-23.762c-0.766 0-1.501 0.304-2.042 0.846s-0.846 1.276-0.846 2.042v23.762c0 0.766 0.304 1.501 0.846 2.042s1.276 0.846 2.042 0.846h23.762c0.379 0 0.755-0.075 1.105-0.22s0.669-0.358 0.937-0.626c0.268-0.268 0.481-0.587 0.626-0.937s0.22-0.726 0.22-1.105v-23.762c0-0.379-0.075-0.755-0.22-1.105s-0.358-0.669-0.626-0.937c-0.268-0.268-0.587-0.481-0.937-0.626s-0.726-0.22-1.105-0.22zM18.363 17.641h-3.692v10.568h-2.937v-10.568h-3.692v-2.396h10.322v2.396zM27.881 26.306c-0.238 0.505-0.621 0.928-1.1 1.214-0.504 0.31-1.060 0.527-1.641 0.64-0.648 0.134-1.308 0.2-1.969 0.197-0.677-0-1.352-0.061-2.018-0.18-0.566-0.116-1.117-0.298-1.641-0.542v-2.806l-0.098-0.098h0.098v0.115c0.494 0.385 1.048 0.685 1.641 0.886 0.592 0.225 1.221 0.337 1.854 0.328 0.331 0.006 0.661-0.027 0.985-0.098 0.243-0.057 0.475-0.151 0.689-0.279 0.167-0.102 0.308-0.243 0.41-0.41 0.101-0.191 0.145-0.406 0.128-0.622s-0.096-0.421-0.226-0.593c-0.154-0.216-0.349-0.4-0.574-0.542-0.273-0.192-0.564-0.357-0.87-0.492l-1.099-0.459c-0.87-0.358-1.642-0.921-2.248-1.641-0.508-0.612-0.776-1.388-0.755-2.183-0.019-0.604 0.116-1.203 0.394-1.739 0.265-0.468 0.636-0.867 1.083-1.165 0.498-0.332 1.055-0.566 1.641-0.689 0.64-0.147 1.296-0.219 1.953-0.213 0.598-0.008 1.196 0.030 1.789 0.115 0.493 0.077 0.977 0.204 1.444 0.377v2.708c-0.216-0.154-0.447-0.286-0.689-0.394-0.261-0.112-0.529-0.206-0.804-0.279-0.263-0.077-0.532-0.132-0.804-0.164-0.251-0.024-0.504-0.024-0.755 0-0.309-0.005-0.618 0.028-0.919 0.098-0.247 0.052-0.485 0.14-0.706 0.263-0.172 0.102-0.318 0.242-0.427 0.41-0.098 0.163-0.149 0.351-0.148 0.542-0.004 0.204 0.053 0.404 0.164 0.574 0.135 0.186 0.301 0.348 0.492 0.476 0.231 0.184 0.485 0.339 0.755 0.459l1.034 0.459c0.476 0.197 0.936 0.427 1.378 0.689 0.389 0.213 0.743 0.484 1.050 0.804 0.301 0.292 0.536 0.644 0.689 1.034 0.157 0.448 0.235 0.92 0.23 1.395-0.012 0.613-0.151 1.217-0.41 1.772v0.033z"></path>
</symbol>
</defs>
</svg>
