<svg aria-hidden="true" style="position:absolute;width:0;height:0" xmlns="http://www.w3.org/2000/svg" overflow="hidden"><defs><symbol id="icon-arrow-left" viewBox="0 0 32 32"><path fill="none" stroke="inherit" stroke-width="3" stroke-linecap="round" stroke-linejoin="round" d="M22.5 3.167l-13 12.917 13 12.917"/></symbol><symbol id="icon-arrow-right" viewBox="0 0 32 32"><path fill="none" stroke="inherit" stroke-width="3" stroke-linecap="round" stroke-linejoin="round" d="M9.5 28.833l13-12.917-13-12.917"/></symbol><symbol id="icon-gmail" viewBox="0 0 32 32"><path fill="var(--color1, #f7f3f3)" d="M16.657 14.56v4.373h10.728c-.328 2.453-1.167 4.249-2.445 5.511-1.57 1.529-4.013 3.2-8.283 3.2-6.605 0-11.768-5.191-11.768-11.627S10.052 4.39 16.657 4.39c3.558 0 6.167 1.369 8.083 3.129l3.157-3.076c-2.664-2.524-6.241-4.444-11.24-4.444C7.608-.001 0 7.182 0 15.999s7.608 16 16.657 16c4.889 0 8.575-1.564 11.457-4.48C31.07 24.639 32 20.568 32 17.296c0-1.013-.073-1.956-.237-2.737H16.656z"/></symbol><symbol id="icon-close" viewBox="0 0 32 32"><path stroke-width="1.778" d="M1.778 1.778l28.444 28.444m-28.444 0L30.222 1.778"/></symbol><symbol id="icon-telegram" viewBox="0 0 32 32"><path d="M16 .5C7.437.5.5 7.438.5 16S7.438 31.5 16 31.5 31.5 24.562 31.5 16 24.562.5 16 .5zm7.613 10.619l-2.544 11.988c-.188.85-.694 1.056-1.4.656l-3.875-2.856-1.869 1.8c-.206.206-.381.381-.781.381l.275-3.944 7.181-6.488c.313-.275-.069-.431-.481-.156l-8.875 5.588-3.825-1.194c-.831-.262-.85-.831.175-1.231l14.944-5.762c.694-.25 1.3.169 1.075 1.219z"/></symbol><symbol id="icon-color" viewBox="0 0 32 32"><path fill="none" stroke="var(--color1, #f7f3f3)" stroke-linejoin="round" stroke-linecap="round" stroke-width="3.2" d="M16 1.6v1.6m0 25.6v1.6M30.4 16h-1.6M3.2 16H1.6m24.582 10.182l-1.131-1.131M6.949 6.949L5.818 5.818m20.364 0l-1.131 1.131M6.949 25.051l-1.131 1.131M22.4 16a6.402 6.402 0 01-10.926 4.525 6.397 6.397 0 010-9.051A6.4 6.4 0 0122.4 16z"/></symbol><symbol id="icon-css" viewBox="0 0 32 32"><path fill="var(--color1, #f7f3f3)" d="M1.333 0h27.999l-2.546 28.751L15.303 32l-11.42-3.251L1.333 0zM24.12 5.883L6.547 5.879l.283 3.495 13.5.004L19.991 13h-8.854l.321 3.43h8.243l-.488 4.698-3.88 1.072-3.939-1.081-.253-2.813H7.662l.387 5.141 7.284 2.268 7.164-2.039L24.12 5.883z"/></symbol><symbol id="icon-github" viewBox="0 0 32 32"><path fill="var(--color1, #f7f3f3)" d="M16 0C7.16 0 0 7.346 0 16.406c0 7.25 4.584 13.398 10.94 15.566.8.154 1.093-.353 1.093-.789 0-.39-.013-1.422-.02-2.789-4.451.99-5.389-2.201-5.389-2.201-.728-1.893-1.78-2.399-1.78-2.399-1.449-1.017.112-.997.112-.997 1.607.115 2.451 1.69 2.451 1.69 1.427 2.509 3.745 1.784 4.66 1.365.144-1.061.556-1.784 1.013-2.195-3.553-.41-7.288-1.821-7.288-8.107 0-1.791.62-3.254 1.647-4.402-.18-.414-.72-2.082.14-4.342 0 0 1.34-.44 4.4 1.682 1.28-.365 2.64-.545 4-.554 1.36.008 2.72.189 4 .554 3.04-2.122 4.38-1.682 4.38-1.682.86 2.26.32 3.928.16 4.342 1.02 1.148 1.64 2.611 1.64 4.402 0 6.303-3.74 7.69-7.3 8.094.56.492 1.08 1.498 1.08 3.035 0 2.196-.02 3.959-.02 4.493 0 .431.28.943 1.1.779C27.42 29.799 32 23.647 32 16.407 32 7.347 24.836.001 16 .001z"/></symbol><symbol id="icon-html" viewBox="0 0 32 32"><path fill="var(--color1, #f7f3f3)" d="M15.943 23.967l6.823-1.855.92-10.011H11.55l-.301-3.329h12.74l.335-3.265H7.561L8.5 15.37h11.55l-.385 4.233-3.722.985-3.722-.985-.233-2.723H8.635l.486 5.234 6.822 1.854zM2.651.074h26.585l-2.397 26.585-10.895 2.954-10.895-2.954L2.652.074z"/></symbol><symbol id="icon-instagram" viewBox="0 0 32 32"><path fill="var(--color1, #f7f3f3)" d="M16 0c-4.347 0-4.889.02-6.596.096C7.7.176 6.54.444 5.52.84c-1.052.408-1.945.956-2.835 1.845S1.246 4.466.84 5.52C.444 6.54.175 7.7.096 9.404.016 11.111 0 11.653 0 16s.02 4.889.096 6.596c.08 1.703.348 2.864.744 3.884a7.854 7.854 0 001.845 2.835A7.807 7.807 0 005.52 31.16c1.021.395 2.181.665 3.884.744 1.707.08 2.249.096 6.596.096s4.889-.02 6.596-.096c1.703-.08 2.864-.349 3.884-.744a7.867 7.867 0 002.835-1.845 7.799 7.799 0 001.845-2.835c.395-1.02.665-2.181.744-3.884.08-1.707.096-2.249.096-6.596s-.02-4.889-.096-6.596c-.08-1.703-.349-2.865-.744-3.884a7.859 7.859 0 00-1.845-2.835A7.786 7.786 0 0026.48.84C25.46.444 24.299.175 22.596.096 20.889.016 20.347 0 16 0zm0 2.88c4.271 0 4.78.021 6.467.095 1.56.073 2.407.332 2.969.553.749.289 1.28.636 1.843 1.195a4.95 4.95 0 011.195 1.841c.218.563.48 1.409.551 2.969.076 1.688.093 2.195.093 6.467s-.02 4.78-.099 6.467c-.081 1.56-.341 2.407-.561 2.969-.299.749-.639 1.28-1.199 1.843a5.002 5.002 0 01-1.84 1.195c-.56.218-1.42.48-2.98.551-1.698.076-2.199.093-6.479.093-4.281 0-4.781-.02-6.479-.099-1.561-.081-2.421-.341-2.981-.561-.759-.299-1.28-.639-1.839-1.199a4.867 4.867 0 01-1.2-1.84c-.22-.56-.479-1.42-.56-2.98-.06-1.68-.081-2.199-.081-6.459 0-4.261.021-4.781.081-6.481.081-1.56.34-2.419.56-2.979.28-.76.639-1.28 1.2-1.841.559-.559 1.08-.919 1.839-1.197.56-.221 1.401-.481 2.961-.561 1.7-.06 2.2-.08 6.479-.08l.06.04zm0 4.904A8.215 8.215 0 007.784 16c0 4.54 3.68 8.216 8.216 8.216 4.54 0 8.216-3.68 8.216-8.216 0-4.54-3.68-8.216-8.216-8.216zm0 13.549c-2.947 0-5.333-2.387-5.333-5.333s2.387-5.333 5.333-5.333c2.947 0 5.333 2.387 5.333 5.333S18.946 21.333 16 21.333zM26.461 7.46a1.921 1.921 0 01-3.84 0 1.92 1.92 0 013.84 0z"/></symbol><symbol id="icon-js" viewBox="0 0 32 32"><path fill="var(--color1, #f7f3f3)" d="M0 0h32v32H0V0zm29.378 24.368c-.233-1.46-1.184-2.686-4.004-3.831-.981-.46-2.071-.779-2.398-1.518-.121-.441-.139-.679-.06-.94.201-.86 1.221-1.118 2.021-.88.521.16 1.001.56 1.301 1.202 1.378-.901 1.378-.901 2.34-1.5-.361-.558-.541-.802-.781-1.042-.841-.939-1.961-1.419-3.78-1.378l-.939.119c-.901.22-1.762.702-2.281 1.34-1.52 1.721-1.081 4.72.759 5.963 1.819 1.36 4.482 1.659 4.821 2.939.32 1.561-1.159 2.06-2.622 1.881-1.079-.242-1.68-.781-2.34-1.781l-2.439 1.401c.279.638.599.919 1.079 1.479 2.32 2.339 8.121 2.22 9.161-1.341.037-.119.32-.939.099-2.199l.061.087zm-11.977-9.66h-2.997c0 2.583-.012 5.152-.012 7.74 0 1.643.084 3.15-.185 3.614-.439.919-1.575.802-2.089.638-.528-.26-.796-.621-1.108-1.14-.084-.139-.146-.26-.169-.26l-2.432 1.501c.407.841 1.001 1.563 1.767 2.021 1.14.681 2.67.901 4.274.542 1.045-.302 1.947-.923 2.414-1.883.683-1.239.537-2.761.532-4.46.014-2.74 0-5.481 0-8.24l.005-.075z"/></symbol><symbol id="icon-linkedin" viewBox="0 0 32 32"><path fill="var(--color1, #f7f3f3)" d="M27.263 27.269h-4.739v-7.425c0-1.771-.036-4.049-2.469-4.049-2.471 0-2.848 1.927-2.848 3.919v7.556h-4.739V12.001h4.552v2.081h.061c.636-1.2 2.183-2.467 4.493-2.467 4.801 0 5.689 3.16 5.689 7.273l-.001 8.381zM7.116 9.911a2.75 2.75 0 01-2.751-2.753 2.752 2.752 0 112.751 2.753zm2.376 17.358H4.74V12h4.752v15.269zM29.633 0H2.361C1.056 0 0 1.032 0 2.305v27.389c0 1.274 1.056 2.305 2.361 2.305h27.268c1.304 0 2.371-1.031 2.371-2.305V2.305C32 1.032 30.933 0 29.629 0h.004z"/></symbol><symbol id="icon-react" viewBox="0 0 32 32"><path fill="var(--color1, #f7f3f3)" d="M16 17.293a2.24 2.24 0 100-4.48 2.24 2.24 0 000 4.48zm-6.272 2.213l-.496-.127c-3.682-.93-5.794-2.511-5.794-4.332 0-1.822 2.113-3.402 5.794-4.332l.496-.126.139.491a24.383 24.383 0 001.426 3.743l.107.223-.107.223a24.393 24.393 0 00-1.426 3.746l-.139.489zm-.724-7.648c-2.797.788-4.515 1.99-4.515 3.19 0 1.197 1.717 2.401 4.515 3.187a26.45 26.45 0 011.236-3.187 25.432 25.432 0 01-1.236-3.19zm13.267 7.648l-.138-.492a24.594 24.594 0 00-1.427-3.745l-.107-.222.107-.225a24.62 24.62 0 001.427-3.745l.138-.489.496.125c3.683.93 5.794 2.51 5.794 4.333 0 1.822-2.112 3.402-5.794 4.332l-.496.127zm-.515-4.458c.502 1.087.92 2.156 1.239 3.187 2.799-.787 4.516-1.99 4.516-3.187 0-1.2-1.717-2.401-4.516-3.19a25.883 25.883 0 01-1.239 3.19z"/><path fill="var(--color1, #f7f3f3)" d="M8.996 11.853l-.138-.489c-1.037-3.649-.723-6.263.862-7.174 1.55-.897 4.043.163 6.655 2.842l.356.366-.356.365a24.747 24.747 0 00-2.535 3.105l-.142.203-.246.02a24.687 24.687 0 00-3.962.639l-.494.123zm1.986-6.939c-.281 0-.53.061-.739.182-1.039.599-1.222 2.683-.507 5.496a26.214 26.214 0 013.383-.523 26.303 26.303 0 012.15-2.664c-1.635-1.59-3.179-2.491-4.287-2.491zm10.035 21.313c-1.491 0-3.406-1.124-5.394-3.165l-.355-.365.355-.364a24.793 24.793 0 002.536-3.109l.141-.201.243-.024a24.472 24.472 0 003.963-.636l.496-.125.139.491c1.032 3.647.719 6.264-.863 7.176-.384.218-.82.329-1.261.322zm-4.286-3.538c1.634 1.59 3.179 2.492 4.286 2.492.282 0 .531-.063.739-.182 1.04-.6 1.225-2.688.507-5.502a25.989 25.989 0 01-3.386.526 25.553 25.553 0 01-2.146 2.665z"/><path fill="var(--color1, #f7f3f3)" d="M23.003 11.853l-.496-.124a24.478 24.478 0 00-3.963-.639l-.243-.021-.141-.203a24.595 24.595 0 00-2.536-3.105l-.355-.365.355-.364c2.61-2.678 5.103-3.738 6.655-2.842 1.584.912 1.899 3.526.863 7.174l-.139.489zm-4.125-1.784a26.07 26.07 0 013.386.523c.717-2.813.533-4.898-.507-5.498-1.034-.599-2.98.317-5.025 2.31a25.885 25.885 0 012.146 2.664zm-7.896 16.158a2.494 2.494 0 01-1.261-.322c-1.585-.911-1.899-3.528-.863-7.176l.136-.491.496.125c1.21.305 2.542.52 3.963.636l.243.024.142.201a24.665 24.665 0 002.535 3.109l.356.364-.356.365c-1.986 2.042-3.902 3.165-5.39 3.165zm-1.246-6.728c-.715 2.813-.532 4.902.507 5.501 1.035.59 2.975-.32 5.026-2.312a26.694 26.694 0 01-2.15-2.664 25.944 25.944 0 01-3.383-.526z"/><path fill="var(--color1, #f7f3f3)" d="M16 20.158c-.862 0-1.747-.037-2.635-.11l-.246-.021-.142-.203a32.515 32.515 0 01-1.413-2.22 32.898 32.898 0 01-1.219-2.333l-.105-.222.105-.225a32.68 32.68 0 011.219-2.332c.435-.748.911-1.496 1.413-2.221l.142-.201.246-.023a31.52 31.52 0 015.268 0l.243.024.142.201a31.487 31.487 0 012.635 4.553l.104.225-.104.222a31.16 31.16 0 01-2.635 4.553l-.142.203-.243.021c-.886.072-1.772.109-2.633.109zm-2.302-1.135c1.55.117 3.053.117 4.602 0a30.751 30.751 0 002.299-3.976 30.053 30.053 0 00-2.299-3.976 29.957 29.957 0 00-4.602 0 29.817 29.817 0 00-2.299 3.976 31.121 31.121 0 002.299 3.976z"/></symbol><symbol id="icon-ts" viewBox="0 0 32 32"><path fill="var(--color1, #f7f3f3)" d="M27.881 1.231H4.119a2.885 2.885 0 00-2.888 2.888v23.762a2.885 2.885 0 002.888 2.888h23.762a2.89 2.89 0 002.888-2.888V4.119a2.89 2.89 0 00-2.888-2.888zm-9.518 16.41h-3.692v10.568h-2.937V17.641H8.042v-2.396h10.322v2.396zm9.518 8.665a2.808 2.808 0 01-1.1 1.214c-.504.31-1.06.527-1.641.64a9.51 9.51 0 01-1.969.197c-.677 0-1.352-.061-2.018-.18a7.415 7.415 0 01-1.641-.542v-2.806l-.098-.098h.098v.115a5.588 5.588 0 001.641.886 5.018 5.018 0 001.854.328c.331.006.661-.027.985-.098.243-.057.475-.151.689-.279.167-.102.308-.243.41-.41a1.137 1.137 0 00-.098-1.215 2.045 2.045 0 00-.574-.542 5.068 5.068 0 00-.87-.492l-1.099-.459a5.847 5.847 0 01-2.248-1.641 3.282 3.282 0 01-.755-2.183 3.535 3.535 0 01.394-1.739 3.433 3.433 0 011.083-1.165 4.699 4.699 0 011.641-.689 8.386 8.386 0 011.953-.213 11.52 11.52 0 011.789.115c.493.077.977.204 1.444.377v2.708a3.984 3.984 0 00-.689-.394 5.834 5.834 0 00-.804-.279 4.9 4.9 0 00-.804-.164 3.968 3.968 0 00-.755 0 3.789 3.789 0 00-.919.098c-.247.052-.485.14-.706.263a1.297 1.297 0 00-.427.41 1.042 1.042 0 00-.148.542c-.004.204.053.404.164.574.135.186.301.348.492.476.231.184.485.339.755.459l1.034.459c.476.197.936.427 1.378.689a4.35 4.35 0 011.05.804c.301.292.536.644.689 1.034.157.448.235.92.23 1.395a4.394 4.394 0 01-.41 1.772v.033z"/></symbol></defs></svg>